<mxfile host="65bd71144e">
    <diagram id="q8MyXGuUTTzE5Ff_NIVF" name="第 1 页">
        <mxGraphModel dx="213" dy="329" grid="1" gridSize="10" guides="1" tooltips="1" connect="1" arrows="1" fold="1" page="1" pageScale="1" pageWidth="827" pageHeight="1169" math="0" shadow="0">
            <root>
                <mxCell id="0"/>
                <mxCell id="1" parent="0"/>
                <mxCell id="2" value="Scene" style="ellipse;whiteSpace=wrap;html=1;aspect=fixed;" vertex="1" parent="1">
                    <mxGeometry x="250" y="60" width="80" height="80" as="geometry"/>
                </mxCell>
                <mxCell id="3" value="Car" style="ellipse;whiteSpace=wrap;html=1;aspect=fixed;" vertex="1" parent="1">
                    <mxGeometry x="250" y="190" width="80" height="80" as="geometry"/>
                </mxCell>
                <mxCell id="4" value="" style="shape=flexArrow;endArrow=classic;html=1;entryX=0.5;entryY=0;entryDx=0;entryDy=0;exitX=0.5;exitY=1;exitDx=0;exitDy=0;" edge="1" parent="1" source="2" target="3">
                    <mxGeometry width="50" height="50" relative="1" as="geometry">
                        <mxPoint x="310" y="260" as="sourcePoint"/>
                        <mxPoint x="360" y="210" as="targetPoint"/>
                    </mxGeometry>
                </mxCell>
                <mxCell id="5" value="Wheel Group" style="ellipse;whiteSpace=wrap;html=1;" vertex="1" parent="1">
                    <mxGeometry x="310" y="290" width="120" height="80" as="geometry"/>
                </mxCell>
                <mxCell id="6" value="Body" style="ellipse;whiteSpace=wrap;html=1;" vertex="1" parent="1">
                    <mxGeometry x="140" y="290" width="120" height="80" as="geometry"/>
                </mxCell>
                <mxCell id="7" value="BodyCube1" style="ellipse;whiteSpace=wrap;html=1;" vertex="1" parent="1">
                    <mxGeometry x="10" y="400" width="120" height="80" as="geometry"/>
                </mxCell>
                <mxCell id="8" value="BodyCube2" style="ellipse;whiteSpace=wrap;html=1;" vertex="1" parent="1">
                    <mxGeometry x="210" y="400" width="120" height="80" as="geometry"/>
                </mxCell>
                <mxCell id="9" value="" style="shape=image;html=1;verticalLabelPosition=bottom;verticalAlign=top;imageAspect=1;aspect=fixed;image=img/clipart/Gear_128x128.png" vertex="1" parent="1">
                    <mxGeometry x="460" y="229" width="52" height="61" as="geometry"/>
                </mxCell>
                <mxCell id="10" value="" style="shape=image;html=1;verticalLabelPosition=bottom;verticalAlign=top;imageAspect=1;aspect=fixed;image=img/clipart/Gear_128x128.png" vertex="1" parent="1">
                    <mxGeometry x="460" y="450" width="52" height="61" as="geometry"/>
                </mxCell>
                <mxCell id="11" value="" style="shape=image;html=1;verticalLabelPosition=bottom;verticalAlign=top;imageAspect=1;aspect=fixed;image=img/clipart/Gear_128x128.png" vertex="1" parent="1">
                    <mxGeometry x="460" y="380" width="52" height="61" as="geometry"/>
                </mxCell>
                <mxCell id="12" value="" style="shape=image;html=1;verticalLabelPosition=bottom;verticalAlign=top;imageAspect=1;aspect=fixed;image=img/clipart/Gear_128x128.png" vertex="1" parent="1">
                    <mxGeometry x="460" y="300" width="52" height="61" as="geometry"/>
                </mxCell>
            </root>
        </mxGraphModel>
    </diagram>
</mxfile>